<svg viewBox="0 0 505 141" fill="none" xmlns="http://www.w3.org/2000/svg">
<g >
<path d="M126.002 33.6177H64.0051V107.445H126.002V33.6177Z" fill="white"/>
<path d="M157.189 102.744C155.078 102.54 154.467 102.404 153.198 101.851C152.283 101.453 152.196 101.389 152.561 101.385C152.794 101.382 153.336 101.465 153.764 101.569C155.434 101.973 157.165 102.218 158.866 102.29C160.384 102.354 160.866 102.326 162.187 102.098C163.847 101.812 166.39 101.108 167.997 100.489C170.46 99.5403 173.742 97.3335 174.93 95.8259C175.875 94.6257 176.552 93.1139 176.556 92.1918C176.558 91.9589 176.722 90.9665 176.923 89.9864C177.362 87.8394 177.526 84.6693 177.382 81.0128C177.329 79.6573 177.251 76.3488 177.205 73.6606C177.004 61.3704 176.783 56.5067 176.349 54.8848C176.111 53.9896 175.838 52.4704 175.908 52.4128C175.932 52.3912 176.181 52.8178 176.456 53.3608C177.521 55.4556 177.648 56.7073 177.836 67.1637C177.914 71.5237 178.043 76.8883 178.122 79.0848C178.401 86.8069 177.81 92.5222 176.493 94.8556C176.301 95.1971 175.615 96.0661 174.969 96.7868C173.903 97.9787 173.631 98.1984 171.956 99.2119C168.899 101.063 166.993 101.765 163.01 102.502C160.497 102.968 159.801 102.997 157.189 102.744V102.744ZM248.194 102.758C246.017 102.549 245.801 102.502 244.386 101.937C243.338 101.518 243.222 101.444 243.561 101.405C243.777 101.381 244.508 101.498 245.187 101.666C246.788 102.061 248.932 102.329 250.502 102.33C251.628 102.331 254.067 102.009 254.989 101.738C258.799 100.617 259.465 100.363 261.353 99.3108C265.157 97.1905 267.069 95.0313 267.465 92.4075C267.548 91.8661 267.777 90.5916 267.973 89.5752C268.296 87.9152 268.334 87.3763 268.347 84.2704C268.362 80.3728 268.093 67.2599 267.884 61.5342C267.744 57.7396 267.539 55.389 267.312 54.9444C267.17 54.6676 266.838 52.6163 266.923 52.5442C267.059 52.4318 267.927 54.4331 268.176 55.4213C268.493 56.6896 268.639 59.6645 268.884 69.9054C269.286 86.7543 269.19 89.5488 268.08 93.2385C267.665 94.6172 267.283 95.2589 266.054 96.6425C264.952 97.884 264.46 98.301 263.334 98.954C262.901 99.2049 262.264 99.5899 261.919 99.8093C261.1 100.328 258.288 101.512 257.113 101.832C255.303 102.325 252.377 102.831 251.096 102.873C250.395 102.896 249.089 102.844 248.194 102.758V102.758ZM432.973 102.744C430.862 102.54 430.251 102.404 428.982 101.851C428.067 101.453 427.98 101.389 428.347 101.385C428.58 101.382 429.122 101.465 429.55 101.569C431.218 101.973 432.949 102.218 434.65 102.29C436.165 102.354 436.652 102.326 437.96 102.1C441.08 101.562 443.888 100.598 446.325 99.2281C450.137 97.0859 451.997 94.9056 452.34 92.1763C452.417 91.5654 452.613 90.4217 452.775 89.6351C453.187 87.632 453.351 84.1313 453.185 80.8728C453.109 79.3977 453.019 75.9377 452.982 73.1837C452.842 62.2785 452.569 56.3597 452.137 54.8848C452.03 54.5241 451.903 53.9073 451.851 53.5139C451.801 53.1204 451.731 52.6914 451.698 52.5602C451.51 51.8158 452.659 54.1632 452.895 55.004C453.351 56.6276 453.473 58.6396 453.617 66.8656C453.692 71.1274 453.825 76.4918 453.914 78.7868C454.218 86.663 453.62 92.4877 452.264 94.8781C451.705 95.8621 449.751 97.9698 448.921 98.4853C448.506 98.7425 447.72 99.2309 447.174 99.5706C445.965 100.325 443.563 101.379 442.141 101.78C441.561 101.944 440.056 102.269 438.794 102.502C436.281 102.968 435.585 102.997 432.973 102.744V102.744ZM293.993 102.616C292.449 102.478 290.434 101.986 290.207 101.692C289.934 101.334 290.318 101.346 292.364 101.761C293.476 101.987 293.821 101.999 296.895 101.919C298.724 101.872 301.111 101.798 302.2 101.754L304.176 101.675L304.633 100.454C304.884 99.7829 305.419 97.9589 305.82 96.4012C306.22 94.8434 306.858 92.4425 307.235 91.0656C307.613 89.6885 308.334 86.8455 308.836 84.7473C309.34 82.6492 310.655 77.5261 311.755 73.3626C312.858 69.1992 314.015 64.5051 314.325 62.9316C315.216 58.4239 316.91 51.8139 317.703 49.7588C318.019 48.9372 318.591 46.2067 318.478 46.0532C318.441 46.0032 318.22 45.9272 317.989 45.8842C317.524 45.7984 317.443 45.5816 317.783 45.3429C317.943 45.2316 318.146 45.2196 318.524 45.2986C319.24 45.4486 319.432 45.801 319.325 46.7785C319.205 47.8739 318.51 50.7348 317.921 52.5602C316.631 56.5514 315.864 59.2556 315.589 60.7857C314.781 65.299 314.085 68.0591 310.779 79.8864C310.465 81.0158 309.919 83.2761 309.569 84.9091C309.22 86.5423 308.705 88.7027 308.427 89.7104C307.521 93.0003 306.829 95.6931 306.596 96.8473C306.331 98.1436 305.19 101.546 304.886 101.938C304.772 102.085 304.482 102.229 304.222 102.264C302.545 102.494 295.386 102.74 293.993 102.616V102.616ZM202.821 102.45C199.781 102.075 199.067 101.896 199.067 101.503C199.067 101.196 199.248 101.195 200 101.501C200.432 101.678 201.209 101.794 202.829 101.924C204.056 102.023 205.111 102.128 205.168 102.159C205.366 102.262 208.419 101.984 208.794 101.829C209.521 101.528 209.679 101.182 209.982 99.227C210.406 96.5093 210.441 92.7519 210.342 61.7307L210.325 55.2846L210.714 54.7901C211.425 53.8827 211.279 53.9008 217.716 53.9233L223.43 53.9431L223.81 53.2516C224.131 52.6682 224.198 52.3575 224.246 51.2639C224.277 50.551 224.218 49.1025 224.115 48.0453C223.86 45.3816 223.862 45.0634 224.15 45.0161C224.613 44.9392 224.943 46.5689 225.076 49.5809C225.17 51.7126 225.008 52.8667 224.508 53.6139C223.936 54.4698 224.017 54.4597 217.777 54.4813C212.519 54.4997 212.183 54.5139 211.838 54.73C211.205 55.1283 210.901 55.5676 210.93 56.0482C210.943 56.2936 211.004 61.5099 211.065 67.6405C211.19 80.408 211.061 97.2643 210.825 99.0527C210.556 101.103 210.074 101.992 209.05 102.34C208.526 102.518 204.019 102.598 202.821 102.45V102.45ZM469.272 102.447C467.157 102.243 464.065 101.628 463.877 101.374C463.705 101.137 463.958 101.062 464.617 101.156C468.196 101.669 469.517 101.769 471.707 101.691C474.757 101.583 474.801 101.574 474.906 101.038C474.952 100.798 474.993 97.7593 474.993 94.2842C474.997 88.0556 475.187 81.0691 475.401 79.3233L475.513 78.4292L475.781 78.906C476.004 79.3025 476.048 79.6337 476.032 80.873C476.021 81.6925 475.976 86.5167 475.932 91.5934C475.879 97.4846 475.796 100.96 475.7 101.2C475.491 101.739 474.882 102.178 474.144 102.324C473.229 102.506 470.58 102.572 469.272 102.447V102.447ZM494.107 102.486C492.493 102.255 489.174 101.559 488.978 101.411C488.705 101.205 488.788 100.968 489.096 101.068C489.207 101.103 489.853 101.188 490.532 101.256C491.214 101.323 492.526 101.466 493.449 101.573C495.262 101.784 499.519 101.754 499.786 101.53C499.877 101.453 499.792 101.169 499.543 100.71C499.227 100.125 499.157 99.8156 499.131 98.8726C499.1 97.7735 499.076 97.699 498.355 96.4289C497.611 95.1196 496.952 93.5916 494.471 87.4296C493.746 85.6265 492.801 83.3735 492.373 82.4226C491.53 80.5582 490.967 79.0674 490.696 77.9881C490.48 77.1292 490.534 77.0545 492.283 75.801C495.31 73.6333 496.633 72.2726 497.655 70.2746C498.895 67.8495 499.192 66.2187 499.327 61.0837C499.408 58.0368 499.388 57.0584 499.242 56.5019C499.137 56.1126 498.986 55.7278 498.906 55.6466C498.759 55.4968 498.532 53.2252 498.676 53.335C498.864 53.4787 499.657 55.344 499.838 56.0658C500.152 57.3228 500.17 63.9879 499.862 65.6062C499.093 69.6671 498.1 71.7021 495.932 73.6562C494.986 74.5071 492.445 76.4999 491.513 77.1196L490.973 77.4789L491.491 79.027C491.775 79.8783 492.347 81.3527 492.759 82.3034C493.172 83.2543 493.766 84.7025 494.076 85.5222C494.947 87.8102 496.803 92.1702 497.783 94.2246C499.002 96.7785 500.349 100.232 500.436 101.02C500.532 101.915 500.216 102.165 498.689 102.394C497.657 102.549 494.927 102.604 494.107 102.486V102.486ZM381.117 102.336C377.637 102.266 377.449 102.228 377.449 101.601C377.449 101.338 377.515 101.258 377.733 101.258C377.927 101.258 378.017 101.337 378.017 101.513V101.768L386.406 101.692C391.019 101.65 396.927 101.584 399.534 101.546C402.144 101.508 405.203 101.527 406.331 101.587C407.766 101.664 408.414 101.659 408.482 101.57C408.742 101.237 408.947 99.6051 408.936 97.9796C408.925 96.71 408.831 95.7475 408.609 94.6604C408.233 92.8423 408.29 92.551 408.934 92.9479C409.128 93.0676 409.242 93.4888 409.447 94.8257C409.991 98.3944 409.954 99.5853 409.253 101.376C408.877 102.339 408.622 102.444 407.174 102.235C405.796 102.036 399.161 102.057 395.502 102.272C392.537 102.446 387.602 102.468 381.117 102.336V102.336ZM326.554 102.272C326.478 102.251 326.238 102.2 326.024 102.16C325.69 102.098 325.635 102.029 325.635 101.673C325.635 101.345 325.692 101.258 325.903 101.258C326.05 101.258 326.203 101.33 326.244 101.418C326.427 101.821 336.008 101.72 336.548 101.309C336.825 101.097 336.978 100.637 337.393 98.7547C337.561 98.0006 338.006 96.3108 338.384 94.9995C338.764 93.6881 339.137 92.2689 339.216 91.8458C339.447 90.608 339.65 90.5014 341.945 90.3986C342.98 90.3523 344.814 90.2955 346.021 90.2726L348.216 90.2311L348.259 90.5431L348.301 90.8554L346.631 90.9289C345.711 90.9696 343.89 91.0375 342.585 91.08C340.323 91.1536 340.209 91.1689 340.139 91.4093C339.927 92.1523 338.456 97.9527 338.155 99.2316C337.962 100.051 337.738 100.862 337.657 101.034C337.382 101.61 336.657 102.079 335.84 102.21C335.168 102.317 326.912 102.373 326.554 102.272V102.272ZM357.6 102.112C356.58 102.027 356.248 101.856 356.183 101.382C356.133 101.012 356.548 100.913 356.93 101.204C357.176 101.393 357.596 101.405 361.954 101.354C367.794 101.284 367.419 101.411 367.056 99.6294C366.925 98.9844 366.694 97.9739 366.543 97.3837C366.39 96.7936 366.078 95.4794 365.847 94.463C365.615 93.4468 365.266 91.9447 365.069 91.125C364.873 90.3056 364.458 88.5353 364.148 87.1912C363.816 85.7562 363.29 83.9813 362.875 82.8923C362.399 81.644 362.048 80.4154 361.803 79.137C361.214 76.0792 360.222 72.1385 358.847 67.3848C358.187 65.1069 357.482 62.1305 357.131 60.13C357.078 59.8351 356.722 58.494 356.338 57.1499C355.952 55.8058 355.611 54.5451 355.578 54.3484C355.545 54.1516 355.386 53.6152 355.227 53.1562C355.065 52.6973 354.81 51.6244 354.659 50.772C354.508 49.9196 354.255 48.9071 354.098 48.5217C353.727 47.6169 353.067 44.9929 353.161 44.7894C353.275 44.5407 353.659 44.6071 353.805 44.9008C353.879 45.0484 354.072 45.8128 354.233 46.5997C354.393 47.3864 354.805 49.103 355.15 50.4143C355.493 51.7257 355.873 53.3351 355.993 53.9907C356.113 54.6464 356.403 55.7462 356.637 56.4346C356.873 57.123 357.58 59.7516 358.211 62.2759C358.842 64.8003 359.897 68.904 360.556 71.3955C362.004 76.8584 362.576 79.2174 363.222 82.363C363.552 83.9779 363.897 85.2089 364.288 86.1779C364.648 87.0706 365.179 88.908 365.696 91.0654C366.155 92.9669 366.657 95.0054 366.814 95.5955C366.971 96.1857 367.262 97.473 367.46 98.4567C367.657 99.4401 367.884 100.433 367.965 100.662C368.15 101.199 367.932 101.672 367.421 101.835C366.753 102.049 359.349 102.257 357.6 102.112V102.112ZM154.969 99.9372C154.735 99.8779 153.812 99.7696 152.914 99.6968C150.716 99.518 149.997 99.2567 146.331 97.2992C144.91 96.5412 142.558 94.6606 141.624 93.5353C139.903 91.4667 138.927 89.1383 138.685 86.5355C138.637 86.011 138.5 84.8307 138.379 83.9128C138.229 82.7639 138.189 81.761 138.251 80.694C138.299 79.8418 138.375 74.0482 138.417 67.8193C138.46 61.5905 138.543 55.2067 138.604 53.6331C138.7 51.0999 138.746 50.7106 139.008 50.2355C139.172 49.9405 139.495 49.3388 139.729 48.8984C140.083 48.2335 140.473 47.8226 142.039 46.4741C144.445 44.4023 145.17 43.9685 147.615 43.139C148.7 42.7711 149.86 42.337 150.192 42.1746C150.834 41.8604 152.052 41.6442 154.823 41.3534C158.227 40.996 160.065 41.1475 162.126 41.9556C162.869 42.2471 163.825 42.5726 164.248 42.6785C165.893 43.0894 169.323 44.8678 170.107 45.7154C171.244 46.9442 173.423 50.9047 173.786 52.4016C174.218 54.1844 174.338 56.8361 174.515 68.475C174.539 70.2123 174.624 73.337 174.698 75.4185C174.965 82.7353 174.489 88.4119 173.373 91.2934C172.792 92.7907 170.903 94.9453 169.382 95.8464C168.851 96.1602 168.179 96.5934 167.888 96.8091C167.349 97.2086 164.858 98.3165 163.504 98.758C163.091 98.8923 161.613 99.2414 160.22 99.534C157.604 100.082 156.017 100.204 154.969 99.9372V99.9372ZM158.22 89.6311C160.183 89.2006 161.462 88.2283 162.329 86.5119L162.86 85.4626L162.938 83.1975C163.028 80.6054 163.037 79.7837 163.006 75.7468C162.993 74.1405 162.986 72.7457 162.991 72.6473C162.993 72.549 162.895 71.992 162.77 71.4097C162.596 70.6054 162.537 69.4888 162.524 66.7606C162.515 64.7857 162.467 61.2656 162.419 58.9381L162.329 54.706L161.936 54.0634C161.462 53.2907 160.932 52.735 160.462 52.5224C160.272 52.4359 159.993 52.2617 159.842 52.1351C159.692 52.0082 159.471 51.9045 159.351 51.9045C159.231 51.9045 158.952 51.7916 158.729 51.6534C157.917 51.1477 155.272 51.2726 153.27 51.9113C152.296 52.222 151.021 53.2075 150.583 53.9907C150.242 54.599 150.264 54.168 150.063 64.2429C149.912 71.8702 149.919 73.2113 150.124 76.2833C150.268 78.4665 150.323 80.4872 150.27 81.7669C150.15 84.6837 150.541 86.7357 151.427 87.8346C151.622 88.0765 151.781 88.3477 151.781 88.437C151.781 88.7329 153.141 89.5789 153.79 89.6866C154.838 89.8602 157.316 89.8292 158.218 89.6311H158.22ZM153.102 86.744C152.609 85.7573 152.46 75.8436 152.748 63.2296C152.899 56.5831 152.875 56.7289 154.102 55.5503C154.941 54.746 155.576 54.4744 157.869 53.9394C158.722 53.7403 158.842 53.7372 159.22 53.9043L159.635 54.0875L158.375 54.3691C156.508 54.7866 155.545 55.1903 154.838 55.8527C153.683 56.9353 153.705 56.8322 153.607 61.3222C153.316 74.5045 153.307 76.3661 153.528 79.3233C153.753 82.3436 153.707 87.1912 153.454 87.1912C153.384 87.1912 153.224 86.9899 153.102 86.744V86.744ZM245.858 99.934C245.624 99.8726 244.7 99.7641 243.805 99.6927C242.334 99.5752 242.054 99.5128 240.903 99.044C238.299 97.984 236.792 97.134 234.788 95.5955C233.338 94.4813 232.353 93.4027 231.36 91.8377C230.327 90.2097 229.914 88.8357 229.55 85.7912C229.338 84.0361 229.314 82.3237 229.338 71.6936C229.355 65.0385 229.436 57.6357 229.517 55.2425C229.663 50.9975 229.676 50.8737 230.026 50.1759C231.045 48.1346 231.058 48.1178 233.157 46.3418C234.268 45.4001 235.513 44.4436 235.919 44.2163C236.325 43.989 237.486 43.5145 238.497 43.1621C239.508 42.8097 240.687 42.3706 241.115 42.1864C242.657 41.5235 248.242 40.9929 250.646 41.2811C251.445 41.377 252.176 41.5781 253.266 42.0027C254.098 42.3265 254.969 42.63 255.203 42.6772C256 42.8379 256.812 43.187 258.681 44.1706C260.251 44.996 260.652 45.27 261.183 45.8768C262.425 47.2957 264.364 50.8944 264.775 52.5462C265.163 54.1073 265.288 57.4195 265.709 77.7012C265.845 84.1634 265.259 89.3936 264.144 91.7204C263.548 92.9613 261.917 94.7833 260.652 95.6202C260.224 95.9034 259.583 96.3444 259.229 96.5999C258.471 97.1447 256.382 98.1049 254.777 98.6455C254.155 98.8554 252.541 99.2608 251.192 99.5464C249.181 99.9724 248.519 100.064 247.51 100.056C246.836 100.05 246.091 99.9953 245.858 99.934V99.934ZM249.681 89.5196C251.452 88.9914 252.628 87.9541 253.445 86.1973L253.897 85.2241L253.934 78.8464C253.962 73.8903 253.927 72.3091 253.779 71.7532C253.508 70.7226 253.434 68.8774 253.364 61.501C253.296 54.2536 253.314 54.3968 252.366 53.3067C251.947 52.8246 251.286 52.3569 250.508 51.994C250.403 51.9447 250.205 51.8508 250.069 51.785C249.056 51.296 248.045 51.2152 246.211 51.4768C243.801 51.8209 242.438 52.5676 241.519 54.0503C241.187 54.5853 241.185 54.6027 241.089 60.4281C240.932 70.0185 240.934 74.5023 241.102 76.5813C241.189 77.6632 241.248 79.9431 241.233 81.6477C241.211 84.206 241.248 84.9091 241.449 85.6739C241.716 86.687 242.096 87.5117 242.532 88.0278C242.687 88.2108 242.814 88.4326 242.816 88.5209C242.818 88.6671 243.569 89.2569 244.087 89.5191C244.775 89.8672 248.513 89.8676 249.679 89.5191L249.681 89.5196ZM244.165 86.908C243.932 86.615 243.869 86.2163 243.744 84.1661C243.569 81.3246 243.585 66.6235 243.772 61.0241C243.908 56.9021 243.969 56.5361 244.611 55.9964C244.755 55.875 245.019 55.6008 245.2 55.3872C245.598 54.9182 246.137 54.6796 247.936 54.1794C249.506 53.7427 249.668 53.725 250.248 53.9285C250.661 54.0737 250.633 54.0866 249.139 54.4191C246.714 54.9599 245.792 55.504 244.919 56.9115C244.587 57.4447 244.585 57.4796 244.495 62.872C244.347 71.8558 244.36 77.0916 244.534 79.9193C244.648 81.7486 244.659 83.3407 244.572 84.9261L244.443 87.2508L244.165 86.908ZM430.753 99.9372C430.519 99.8779 429.596 99.7696 428.7 99.6968C426.504 99.5185 425.786 99.2569 422.146 97.3161C420.812 96.6043 418.345 94.6536 417.506 93.6488C416.469 92.4051 415.583 90.9228 415.19 89.7772C414.558 87.9366 413.884 82.7152 414.03 80.8073C414.083 80.134 414.159 74.4953 414.2 68.277C414.242 62.0586 414.329 55.5763 414.393 53.8715C414.504 50.8663 414.519 50.7503 414.888 50.0567C415.098 49.6634 415.408 49.0754 415.578 48.7503C415.958 48.0254 419.91 44.6049 420.954 44.0986C421.327 43.9176 422.534 43.4538 423.635 43.0678C424.735 42.6818 425.86 42.2547 426.133 42.1187C426.93 41.7235 431.224 41.1748 433.508 41.1763C435.321 41.1776 436.408 41.3678 437.901 41.9442C438.641 42.2296 439.598 42.5564 440.026 42.6704C441.895 43.1678 445.144 44.8816 445.967 45.8038C447.152 47.1329 449.196 50.8375 449.569 52.3353C449.997 54.0464 450.128 56.8667 450.294 67.8789C450.321 69.6163 450.41 72.8888 450.495 75.1508C450.779 82.8176 450.246 88.8855 449.05 91.6019C448.471 92.9143 446.585 94.973 445.146 95.8617C444.548 96.2298 443.849 96.684 443.591 96.8706C442.982 97.3128 440.03 98.5567 438.716 98.9248C438.152 99.0831 436.729 99.4047 435.554 99.6394C433.358 100.078 431.707 100.18 430.753 99.9372V99.9372ZM433.982 89.6355C436.104 89.1704 437.318 88.2043 438.277 86.2204C438.609 85.5361 438.65 85.2602 438.72 83.3763C438.842 80.0709 438.753 72.2879 438.587 71.7532C438.5 71.468 438.386 68.0442 438.307 63.2296C438.22 57.9929 438.117 55.0001 438.015 54.6597C437.803 53.9698 436.849 52.7796 436.323 52.5508C436.093 52.4506 435.781 52.2643 435.628 52.1366C435.478 52.0091 435.255 51.9045 435.135 51.9045C435.015 51.9045 434.735 51.7916 434.515 51.6534C433.709 51.1525 431.059 51.2722 429.096 51.8984C428.019 52.2418 426.982 53.0451 426.443 53.9551L426.01 54.6844L426.013 56.7813C426.015 57.9348 425.938 61.9302 425.847 65.6606C425.705 71.3619 425.709 72.8912 425.879 75.2571C425.989 76.8049 426.063 79.4034 426.039 81.0311C425.986 84.9578 426.27 86.5842 427.222 87.8145C427.412 88.0589 427.567 88.3355 427.567 88.4292C427.567 88.7313 428.919 89.5776 429.576 89.6866C430.611 89.858 433.1 89.8292 433.982 89.6355ZM428.886 86.744C428.486 85.9451 428.253 77.4206 428.419 69.6075C428.716 55.4925 428.58 56.8344 429.834 55.6093C430.563 54.8938 430.766 54.7715 431.694 54.4872C433.589 53.9067 434.534 53.7241 434.965 53.8567C435.179 53.923 435.353 54.0075 435.353 54.0444C435.353 54.0816 434.807 54.2307 434.141 54.3757C431.657 54.9169 430.471 55.613 429.764 56.9501C429.441 57.5589 429.434 57.6503 429.316 63.8853C429.152 72.4064 429.172 77.5217 429.373 80.0982C429.552 82.3809 429.458 87.1912 429.238 87.1912C429.168 87.1912 429.008 86.9899 428.886 86.744V86.744ZM290.266 99.708C289.62 99.6506 288.609 99.4831 288.019 99.3362C287.083 99.1019 286.925 99.022 286.764 98.6955C286.502 98.1698 285.941 96.2351 285.5 94.3438C285.292 93.4586 284.875 91.8761 284.574 90.8272C284.272 89.7781 283.764 87.7394 283.447 86.2971C282.823 83.4604 282.255 81.1724 281.268 77.5351C280.921 76.2565 280.441 74.1912 280.198 72.9453C279.956 71.6997 279.539 69.9829 279.275 69.1307C279.008 68.2783 278.718 67.1248 278.631 66.5676C278.543 66.0102 278.379 65.3986 278.268 65.2082C278.157 65.0178 278.065 64.7226 278.065 64.5525C278.063 64.3822 277.93 63.7333 277.77 63.1104C277.609 62.4875 277.39 61.4593 277.286 60.8252C277.181 60.1914 276.838 58.7698 276.528 57.6663C276.216 56.5626 275.855 55.2036 275.729 54.6464C275.6 54.089 275.31 53.0912 275.083 52.4287C274.858 51.7661 274.517 50.5859 274.327 49.806C274.137 49.0259 273.679 47.1606 273.31 45.6608C272.823 43.6826 272.679 42.8805 272.783 42.7401C273.015 42.4274 274.364 41.9182 275.34 41.7752C276.471 41.6095 279.652 41.606 281.017 41.7691C282.185 41.9084 284.587 42.3359 284.69 42.4224C284.845 42.5527 288.12 54.9905 288.395 56.4942C288.48 56.9532 288.703 57.9189 288.893 58.6401C289.083 59.3613 289.755 62.1776 290.388 64.8986C291.021 67.6195 291.849 70.7949 292.227 71.9547C292.604 73.1147 293.181 75.0995 293.506 76.3656C293.831 77.6318 294.148 78.7434 294.207 78.8361C294.277 78.9479 294.393 78.7768 294.548 78.3287C294.986 77.0556 295.886 73.7796 296.681 70.5613C297.12 68.7909 297.851 66.0818 298.31 64.5409C298.768 63.0001 299.338 60.9348 299.58 59.9514C299.82 58.9678 300.46 56.5807 301.002 54.6464C301.543 52.7123 302.305 49.8691 302.694 48.3283C303.083 46.7875 303.609 44.8294 303.864 43.977L304.327 42.4272L304.827 42.2901C306.967 41.7019 311.537 41.6036 313.27 42.1088C313.748 42.2486 314.491 42.3977 314.919 42.4399C315.345 42.4822 315.772 42.5571 315.866 42.6064C316.107 42.7311 315.84 44.351 315.24 46.4209C314.984 47.306 314.696 48.4593 314.598 48.984C314.502 49.5084 314.021 51.2787 313.532 52.9178C312.486 56.4099 312.288 57.2158 311.895 59.5342C311.456 62.1248 310.469 65.9545 307.449 76.8054C307.093 78.0761 306.519 80.4473 306.17 82.075C305.818 83.7027 305.251 86.0696 304.903 87.3346C304.558 88.5999 304.015 90.7883 303.696 92.1982C303.375 93.6078 302.917 95.3244 302.676 96.0128C302.434 96.7012 302.091 97.7383 301.914 98.3176C301.735 98.8966 301.569 99.3837 301.543 99.3999C301.454 99.4556 295.687 99.7206 293.567 99.7665C292.399 99.7916 290.914 99.7652 290.266 99.708V99.708ZM198.714 99.5093C197.858 99.4102 196.838 99.2366 196.449 99.1235L195.742 98.9178V92.6669C195.742 89.1853 195.818 85.425 195.912 84.1787C196.041 82.4643 196.043 80.2202 195.919 74.5822C195.829 70.5346 195.757 66.2575 195.757 65.0774C195.757 62.9075 196.028 55.6289 196.185 53.6089C196.233 53.0054 196.229 52.3294 196.179 52.1067L196.089 51.7016L190.039 51.6265C184.015 51.5519 182.716 51.4671 182.417 51.1292C182.1 50.77 181.866 49.0938 181.877 47.2554C181.888 45.3451 182.098 44.0619 182.648 42.5615C183.002 41.6012 182.952 41.611 186.587 41.7918C188.216 41.8728 193.855 41.9348 200.198 41.9414C206.157 41.9477 212.925 42.0008 215.242 42.0597C218.6 42.1449 219.569 42.1348 220.017 42.0108C220.452 41.8901 220.622 41.887 220.779 41.9971C221.22 42.3051 222.002 45.7591 222.002 47.4014C222.002 48.3811 221.679 49.5951 221.063 50.9283L220.659 51.7999L219.949 51.7032C219.561 51.6501 216.971 51.6263 214.198 51.6506C210.465 51.6831 209.017 51.6564 208.626 51.5477C207.58 51.2571 207.637 50.8132 207.583 59.5682C207.521 69.1497 207.545 71.2733 207.718 71.8375C207.792 72.0805 207.86 72.7241 207.871 73.268C207.914 75.5763 207.545 95.0287 207.427 96.6089C207.358 97.5595 207.294 98.5536 207.288 98.8176L207.279 99.2979L206.041 99.4606C204.218 99.6999 200.572 99.7241 198.714 99.5093V99.5093ZM490.779 99.6233C490.545 99.596 489.384 99.3894 488.198 99.1643C487.013 98.939 485.93 98.7538 485.792 98.7527C485.589 98.7512 485.242 97.982 483.949 94.6698C483.076 92.4252 482.076 89.7571 481.729 88.741C481.207 87.2089 478.917 81.33 477.294 77.3562L476.906 76.4025H474.899H472.893L472.807 77.1774C472.58 79.2851 472.443 84.6379 472.454 90.9647C472.462 97.6706 472.452 98.006 472.187 98.5757C471.938 99.1056 471.84 99.1901 471.292 99.3362C470.917 99.4362 469.735 99.5226 468.27 99.5573C465.646 99.6193 463.58 99.4078 461.417 98.8551L460.369 98.5875L460.482 94.8861C460.602 90.9281 460.633 88.7765 460.753 75.568C460.794 70.9128 460.89 64.5827 460.967 61.501C461.043 58.4196 461.109 52.9246 461.113 49.2903C461.12 44.5658 461.168 42.5728 461.286 42.2977C461.449 41.9132 461.452 41.9128 462.665 41.8447C467.179 41.5907 474.148 41.6861 478.827 42.0656C482.893 42.3953 486.722 43.061 488.196 43.6942C488.515 43.8318 488.949 43.9543 489.161 43.9665C489.659 43.9955 491.345 45.1547 492.377 46.1768C493.375 47.1647 494.46 48.5582 494.683 49.1353C494.777 49.3798 495.091 49.9822 495.382 50.4739C495.679 50.9792 496.069 51.9385 496.277 52.6794C496.628 53.9333 496.646 54.1578 496.672 57.8056C496.705 61.9999 496.598 62.9564 495.803 65.6436C495.085 68.0726 494.115 69.5113 491.949 71.3606C490.705 72.423 488.452 74.1296 487.873 74.4495L487.526 74.6423L488.137 76.2973C488.476 77.2075 488.971 78.4351 489.242 79.0252C489.513 79.6152 489.98 80.7687 490.283 81.5881C490.993 83.5137 492.893 88.1438 493.757 90.0523C494.526 91.7503 496.707 97.063 497.03 98.0222C497.406 99.1394 497.255 99.2628 495.113 99.5914C494.377 99.7043 491.65 99.7244 490.779 99.6233V99.6233ZM480.303 65.7215C481.997 65.4534 483.417 64.9001 483.86 64.3368C484.478 63.5492 484.692 61.9538 484.692 58.1036C484.692 54.1394 484.663 53.9968 483.729 53.2045C482.454 52.1248 481.098 51.8951 476.251 51.9366L473.05 51.9641L472.984 58.6119C472.949 62.2682 472.947 65.418 472.982 65.6113L473.043 65.9626L474.266 65.9968C476.473 66.0586 478.862 65.9497 480.303 65.7215V65.7215ZM475.578 64.1418C475.327 63.8872 475.541 54.57 475.801 54.3877C475.919 54.3058 477.091 54.2032 478.722 54.1318C480.993 54.0322 481.515 54.0405 481.864 54.1813C482.093 54.2741 482.303 54.4436 482.329 54.558C482.373 54.7501 482.155 54.7656 479.393 54.7656H476.41V59.3455C476.41 61.8645 476.371 64.0102 476.323 64.1139C476.218 64.3447 475.794 64.3606 475.578 64.1418V64.1418ZM377.486 99.4999L374.478 99.4652V99.1755C374.478 99.0161 374.373 98.8366 374.244 98.7763C374.039 98.6792 374.019 98.3955 374.067 96.2372C374.146 92.8543 374.117 88.0431 373.995 83.6147C373.86 78.665 373.862 79.1337 373.882 62.872C373.89 55.1023 373.941 47.3195 373.995 45.5765L374.093 42.4078L374.532 42.1588C375.303 41.7224 376.849 41.6137 381.021 41.7021C383.104 41.7462 385.004 41.8401 385.244 41.9106L385.681 42.039L385.65 51.2335C385.624 59.4586 385.714 69.9067 385.851 74.6739C385.879 75.6246 385.991 76.7512 386.1 77.1774C386.259 77.7951 386.29 79.113 386.255 83.6744C386.22 88.4254 386.246 89.4351 386.412 89.623C386.646 89.8927 386.917 89.8982 394.015 89.7781C397.6 89.7174 399.602 89.7425 402.22 89.8809C404.126 89.9816 405.698 90.0763 405.716 90.0912C405.735 90.1062 405.888 90.8949 406.061 91.8438C406.504 94.3086 406.508 96.5741 406.076 97.9202C405.895 98.4774 405.652 99.0589 405.534 99.2121C405.336 99.468 405.253 99.4846 404.515 99.4134C402.574 99.2261 395.48 99.2204 392.257 99.4036C389.152 99.5798 386.126 99.5995 377.486 99.4999V99.4999ZM323.345 99.3912C322.888 99.3617 322.471 99.2658 322.375 99.168C322.242 99.0333 322.314 98.4394 322.714 96.4019C322.993 94.975 323.288 93.4318 323.366 92.9728C323.445 92.5139 323.637 91.5752 323.792 90.8866C323.947 90.1982 324.364 88.2669 324.722 86.5951C325.078 84.923 325.583 82.9115 325.845 82.1246C326.104 81.3379 326.364 80.4259 326.421 80.0982C326.478 79.7702 326.613 79.2875 326.724 79.0252C326.834 78.7628 327.113 77.234 327.342 75.6276C327.604 73.8075 327.917 72.2128 328.174 71.3955C328.401 70.6744 328.659 69.7499 328.744 69.3414C328.831 68.9329 329.026 68.3696 329.176 68.0896C329.327 67.8097 329.452 67.4327 329.454 67.2514C329.456 67.0702 329.519 66.8287 329.593 66.715C329.67 66.601 330.087 64.7914 330.521 62.6931C330.956 60.5951 331.438 58.4761 331.596 57.9844C331.753 57.4925 331.938 56.7885 332.008 56.4198C332.08 56.0512 332.299 55.3353 332.495 54.8289C332.692 54.3226 332.98 53.1222 333.139 52.1613C333.486 50.0416 333.735 48.7859 334.128 47.1361C335.117 42.9877 335.471 41.9604 335.949 41.8401C338.041 41.3137 349.755 41.3846 350.353 41.9274C350.519 42.077 351.886 47.5687 352.539 50.7123C352.751 51.7287 353.117 53.1772 353.355 53.9311C353.593 54.6851 354.244 57.1261 354.803 59.3551C355.36 61.5844 356.421 65.7152 357.159 68.5346C358.648 74.2252 359.419 77.42 359.954 80.0982C360.17 81.1844 360.534 82.4477 360.886 83.3167C361.445 84.7097 362.82 90.0084 363.93 95.0591C364.196 96.2722 364.513 97.6095 364.635 98.0311C364.757 98.4527 364.807 98.837 364.746 98.8851C364.572 99.0248 359.515 99.2316 356.266 99.2316C353.558 99.2316 353.264 99.2115 353.05 99.0134C352.921 98.8936 352.814 98.6388 352.81 98.4473C352.805 98.2558 352.648 97.6163 352.46 97.0261C351.598 94.3237 350.67 91.1045 350.406 89.8914C350.246 89.1602 350.083 88.4337 350.043 88.277L349.969 87.9918L346.048 88.0691C337.519 88.2372 336.952 88.2667 336.807 88.5486C336.735 88.6872 336.299 90.2796 335.838 92.0877C334.912 95.7104 334.572 96.8851 334.052 98.2713L333.705 99.1988L332.748 99.2735C331.517 99.3696 324.395 99.4589 323.345 99.3912V99.3912ZM345.772 78.0527C347.244 77.9851 347.436 77.9512 347.436 77.7626C347.436 76.8213 343.624 62.4706 343.2 61.823C343.146 61.7381 342.827 62.8307 342.495 64.2514C341.919 66.7169 340.318 72.8431 339.321 76.4025L338.853 78.0715L339.5 78.1506C340.159 78.2313 342.794 78.1903 345.772 78.0527V78.0527ZM342.831 76.456C342.79 76.3995 342.882 75.9351 343.034 75.4241C343.187 74.9132 343.419 74.0123 343.55 73.4222C343.812 72.2213 343.879 72.0741 344.054 72.3067C344.347 72.6962 344.091 74.6174 343.53 76.2405C343.456 76.4595 342.947 76.6156 342.831 76.456V76.456ZM388.781 88.0903C388.648 87.9545 388.648 87.5715 388.786 86.332C388.967 84.6685 388.884 80.8036 388.639 79.5617C388.43 78.5006 388.192 63.3973 388.238 54.0709C388.279 45.8169 388.27 45.4416 388.021 45.2879C387.877 45.1997 387.783 45.0296 387.81 44.9099C387.871 44.6423 388.469 44.5628 388.812 44.7765C389.041 44.9189 389.059 45.2599 389.032 49.2818C388.984 56.6973 389.01 63.758 389.109 69.9054C389.242 78.2634 389.277 79.1685 389.495 80.0385C389.696 80.8438 389.744 86.6977 389.556 87.7573C389.46 88.2979 389.128 88.4414 388.781 88.0903V88.0903ZM293.316 69.7861C293.27 69.6879 293.131 68.9637 293.004 68.177C292.877 67.3901 292.462 65.1102 292.085 63.1104C291.707 61.1106 291.353 59.1056 291.296 58.6547C291.242 58.2038 291.074 57.5064 290.927 57.1049C290.779 56.7034 290.528 55.463 290.369 54.3484C290.211 53.2337 289.921 51.6244 289.727 50.772C289.532 49.9196 289.286 48.5685 289.179 47.7693C289.021 46.5997 288.927 46.2685 288.692 46.0706C288.29 45.7318 288.318 45.4671 288.755 45.4671C289.445 45.4671 289.631 45.7942 289.738 47.2102C289.792 47.9235 290.019 49.2848 290.242 50.2355C290.462 51.1864 290.748 52.6346 290.873 53.4543C291 54.2739 291.194 55.2436 291.305 55.6093C291.534 56.3551 291.923 58.506 292.36 61.4414C292.519 62.5233 292.879 64.68 293.161 66.234C293.561 68.4525 293.641 69.1569 293.532 69.5123C293.447 69.7953 293.366 69.8979 293.316 69.7861V69.7861ZM188.292 54.4143C186.152 54.3294 185.62 54.1726 185.62 53.6302C185.62 53.3988 185.692 53.335 185.956 53.335C186.141 53.335 186.379 53.4405 186.486 53.5693C186.668 53.7875 186.932 53.8097 190.362 53.8971C193.91 53.9875 194.043 53.9992 194.043 54.2292C194.043 54.4551 193.943 54.4682 192.131 54.4794C191.08 54.4857 189.353 54.4564 188.292 54.4143V54.4143Z" fill="white" stroke="#2d3748" stroke-width="1.5"/>
<path d="M73.0655 126.543L53.2034 120.48L53.1691 68.9738L53.1348 17.4675C53.8796 17.3034 53.86 14.5011 53.1351 14.2535V13.5608V12.8681L93.1662 12.8947L133.268 12.9253L133.266 14.3406C132.269 14.6258 132.431 17.1535 133.266 17.3758C133.304 17.5056 133.255 41.0244 133.235 69.2069L133.197 120.447L129.102 121.699C126.85 122.387 117.906 125.126 109.227 127.785C100.548 130.444 93.3307 132.617 93.1875 132.613C93.0444 132.609 83.9896 129.877 73.0656 126.543H73.0655ZM117.304 98.3089C118.8 98.105 119.477 97.8743 119.714 97.4868C119.931 97.1321 119.944 91.3101 119.737 86.9024C119.657 85.1956 119.561 76.5925 119.523 67.7842C119.486 58.9761 119.447 51.52 119.437 51.2153C119.426 50.9103 119.469 49.8381 119.53 48.8324C119.658 46.7245 119.613 46.5987 118.717 46.5748C118.266 46.5625 118.175 46.598 118.14 46.7995C118.106 46.9886 118.187 47.0547 118.524 47.1149C118.855 47.1738 118.929 47.2323 118.853 47.3745C118.647 47.7607 118.528 62.2754 118.68 68.6155C118.8 73.6026 118.796 75.3297 118.659 76.817C118.528 78.2402 118.521 79.2704 118.627 81.0285C118.709 82.3814 118.72 83.6807 118.653 84.1317C118.58 84.6226 118.606 85.8432 118.725 87.4566C118.983 90.9699 119.111 96.4951 118.942 96.8555C118.747 97.2722 118.29 97.4693 117.074 97.662C114.984 97.9933 110.546 97.7935 109.415 97.3175C108.779 97.0495 108.598 97.4188 109.147 97.8647C109.407 98.0759 109.706 98.1443 110.819 98.2472C111.564 98.316 112.359 98.3899 112.584 98.4115C113.704 98.5191 116.151 98.466 117.304 98.3089H117.304ZM79.7721 98.1529C80.6256 98.0316 81.4823 97.9318 81.6757 97.9311C82.0787 97.9298 82.5489 97.56 82.6632 97.1542C82.7061 97.0019 82.8112 95.874 82.8966 94.6476C83.0229 92.8304 83.0116 91.6728 82.8355 88.3858C82.7164 86.168 82.5551 83.8296 82.4774 83.1895C82.3996 82.5497 82.2521 81.0035 82.15 79.754C82.0036 77.9639 81.8977 77.3232 81.6514 76.7339C81.4796 76.3224 81.2806 75.9857 81.2092 75.9857C81.129 75.9857 81.1174 76.5237 81.179 77.3987C81.4461 81.2061 81.5593 83.4554 81.5957 85.6833C81.6179 87.0243 81.7089 89.4433 81.7983 91.0585C81.8893 92.701 81.9188 94.689 81.8653 95.569L81.77 97.1422L81.4105 97.2032C80.373 97.3792 78.9774 97.4826 77.6115 97.4844C76.1876 97.4865 73.3899 97.2568 72.4513 97.061C71.9255 96.9511 71.6092 97.0097 71.5019 97.2362C71.3153 97.631 71.8304 97.7933 74.1575 98.0719C77.0095 98.4136 77.8517 98.4256 79.772 98.1529L79.7721 98.1529ZM114.897 95.5695L116.527 95.3255L116.651 94.9375C116.769 94.5682 116.606 83.6408 116.479 83.4114C116.425 83.3132 116.306 49.3803 116.355 47.9456C116.381 47.1839 116.403 46.0125 116.405 45.3432L116.407 44.126L115.529 43.9333C113.979 43.5932 109.78 43.2596 108.012 43.3359C104.945 43.4682 103.523 43.5929 102.715 43.8007L101.896 44.0112L101.808 44.644C101.666 45.6628 100.999 47.7165 99.9787 50.2801C99.4556 51.5942 98.864 53.265 98.6644 53.9927C98.1526 55.8578 97.5511 57.7779 97.295 58.3636C96.995 59.0506 94.8782 64.906 94.8312 65.1797C94.6959 65.9651 93.8038 68.6845 92.9678 70.8598C92.4311 72.2562 92.1767 72.6445 92.1767 72.0666C92.1767 71.6194 90.8894 67.668 89.536 63.9606C88.0796 59.9717 87.4724 58.1909 85.9647 53.4872C85.3884 51.689 84.7763 49.9186 84.6045 49.5527C84.3118 48.9295 83.8045 47.6128 83.6651 47.1146C83.3462 45.9747 82.6771 44.2078 82.5264 44.107C82.4227 44.0374 81.9254 43.9474 81.4214 43.9062C80.9174 43.8653 79.8724 43.7351 79.0991 43.6166C77.2984 43.3413 73.8015 43.3223 71.8695 43.577C71.1383 43.6736 69.9399 43.7661 69.2063 43.7828C68.4724 43.7994 67.8434 43.8362 67.8083 43.8648C67.66 43.9851 67.7064 49.8551 67.8734 52.1017C67.9727 53.4429 68.0527 54.6898 68.0505 54.8726C67.9808 60.9303 68.1102 80.7186 68.2204 80.8634C68.2761 80.9366 68.4354 91.8929 68.4252 94.95C68.4238 95.2263 68.4665 95.243 69.3457 95.3143C69.8524 95.3555 71.127 95.4917 72.1782 95.6172C74.1936 95.8578 74.759 95.8474 76.8827 95.531C77.565 95.4292 78.3029 95.3872 78.6845 95.4284L79.3312 95.4979L79.4403 95.0792C79.5005 94.849 79.547 92.0421 79.5437 88.842C79.5396 84.4708 79.4762 82.2515 79.2898 79.9202C79.1532 78.2134 79.0332 75.5701 79.023 74.0461C79.0046 71.2767 79.174 67.449 79.3304 67.1014C79.4397 66.8579 82.1988 73.3424 83.2989 76.4289C83.7662 77.7397 84.8717 80.5824 85.7557 82.7463C86.6397 84.9102 87.534 87.217 87.7428 87.8722C87.9516 88.5274 88.1768 89.0636 88.2433 89.0636C88.3097 89.0636 88.2954 89.1676 88.2117 89.2949C88.1277 89.422 88.0999 89.559 88.1496 89.5996C88.3573 89.7686 93.2117 89.7418 94.9539 89.5616C96.8867 89.3619 97.0914 89.321 97.0895 89.135C97.0879 89.0652 97.4531 87.9858 97.899 86.7363C98.3449 85.4865 98.9921 83.6164 99.337 82.5802C99.6822 81.5439 100.584 79.1499 101.341 77.2602C103.475 71.9304 103.735 71.2614 104.245 69.7793C105.161 67.116 105.089 66.8389 105.19 73.4419C105.24 76.7003 105.283 82.1838 105.284 85.6279C105.289 91.9179 105.393 94.1888 105.72 94.9961C105.924 95.5021 105.917 95.5005 109.07 95.7657C111.272 95.9508 112.663 95.9042 114.897 95.5696L114.897 95.5695ZM98.1146 92.1577C99.6766 92.0262 100.022 91.9205 100.213 91.5147C100.521 90.8634 101.77 87.4003 102.611 84.8698C103.239 82.9796 103.507 81.976 103.507 81.5171C103.507 81.1569 103.452 80.8621 103.386 80.8621C103.111 80.8621 101.914 83.9489 100.506 88.2878C100.061 89.6592 99.6566 90.8942 99.6066 91.0322C99.5564 91.17 99.3846 91.3056 99.2247 91.3337C98.4706 91.466 95.7672 91.6127 94.0853 91.6127C92.3788 91.6127 92.1973 91.5935 91.9664 91.3861C91.8276 91.2616 91.5877 91.1744 91.4335 91.1923C91.2004 91.2192 91.1607 91.2905 91.1999 91.6127C91.2261 91.8262 91.3082 92.0609 91.3824 92.1346C91.6398 92.389 95.2189 92.4012 98.1146 92.1577L98.1146 92.1577ZM92.4337 65.9485C92.2827 65.4648 91.8287 64.1213 91.4246 62.9632C91.0205 61.8051 90.1611 59.2183 89.5147 57.2152C88.8684 55.212 88.1543 53.1421 87.9279 52.6158C87.7016 52.0892 87.4363 51.3843 87.3386 51.0489C87.1984 50.5678 86.3006 47.9266 85.9381 46.9282C85.8684 46.737 85.5033 46.5662 85.379 46.667C85.2848 46.7438 85.7339 48.118 86.0324 48.6662C86.1653 48.91 86.4046 49.5084 86.5639 49.9962C86.7233 50.4837 87.1576 51.8054 87.5287 52.933C87.8998 54.0606 88.4816 55.8813 88.8214 56.9784C89.5147 59.2178 89.6276 59.5392 90.7861 62.5752C91.2398 63.764 91.7757 65.2352 91.9772 65.8448C92.3975 67.1154 92.4469 67.2066 92.5976 66.9878C92.6611 66.8959 92.5911 66.4545 92.4337 65.9485V65.9485ZM5.17518 18.1048C5.09042 17.8237 4.40173 14.1015 4.40173 13.9245C4.40173 13.8544 4.875 13.8101 5.6236 13.8101C6.29562 13.8101 7.17098 13.7566 7.56884 13.6913C8.19095 13.589 13.4137 12.4736 13.516 12.4211C13.5363 12.411 13.3659 12.0786 13.1377 11.6828C12.2569 10.1546 12.1185 8.40575 12.736 6.60696C13.7093 3.77165 16.1114 2.30532 19.606 2.41322C20.8078 2.45032 21.1065 2.50128 21.9022 2.80478C23.0261 3.2335 23.9618 3.97235 24.4429 4.81112C25.1291 6.00759 24.8317 8.02236 23.6986 9.85256C22.9921 10.9935 22.5159 11.5284 21.2986 12.5479L20.2252 13.4469L20.6064 13.5715C21.2688 13.788 22.6993 14.0136 24.6732 14.2127C26.3927 14.3861 27.909 14.4021 39.7915 14.3723L52.9987 14.3391V15.8578V17.3766L40.6787 17.3274C30.5218 17.2869 27.9436 17.2456 25.9929 17.0924C21.5656 16.7445 18.9754 16.2559 17.6135 15.5118L16.9532 15.151L15.3974 15.6919C12.5894 16.668 9.44434 17.5865 7.58388 17.9736C5.416 18.4247 5.274 18.4324 5.17518 18.1048V18.1048ZM17.9529 11.1906C19.6726 10.3208 20.8413 9.15327 21.3479 7.79907C21.7215 6.80071 21.6212 6.37083 20.8734 5.76483C20.1614 5.1878 19.4918 5.06775 18.41 5.32307C16.9589 5.66555 16.1396 6.85287 16.1431 8.60839C16.1444 9.06158 16.2268 9.68172 16.327 9.9865C16.5474 10.6564 17.0511 11.4827 17.239 11.4827C17.3141 11.4827 17.6353 11.3512 17.9529 11.1906H17.9529ZM180.702 18.1333C178.626 17.749 174.971 16.695 171.789 15.5628L170.52 15.1113L170.219 15.3349C169.321 16.0024 166.855 16.5993 163.707 16.9112C160.489 17.2301 158.636 17.274 146.268 17.3236L133.266 17.3758V14.3406L147.224 14.3707C160.845 14.4001 161.233 14.3951 163.297 14.1636C165.45 13.9221 166.954 13.6564 167.173 13.4783C167.245 13.4203 166.978 13.1442 166.529 12.8109C165.426 11.9925 164.577 11.0319 163.838 9.76485C162.994 8.31877 162.7 7.30752 162.78 6.12859C162.856 5.00809 163.24 4.33856 164.244 3.57613C165.343 2.74108 166.22 2.46569 167.941 2.41456C169.213 2.37676 169.499 2.40517 170.448 2.6639C171.7 3.00495 172.469 3.40657 173.25 4.12709C174.962 5.70652 175.666 8.66386 174.835 10.7843C174.648 11.2599 174.374 11.8092 174.225 12.0051C174.077 12.201 173.999 12.3823 174.052 12.4079C174.228 12.4919 179.319 13.5828 180.073 13.6979C180.477 13.7596 181.353 13.8101 182.02 13.8101C183.208 13.8101 183.231 13.8154 183.162 14.0595C183.071 14.3809 182.409 18.0331 182.409 18.2156C182.409 18.3972 182.029 18.3788 180.702 18.1333H180.702ZM170.854 10.8339C171.636 9.41885 171.627 7.63089 170.832 6.44346C169.842 4.96514 167.312 4.76196 166.29 6.07874C165.633 6.92504 166.312 8.71102 167.757 9.94147C168.508 10.5807 170.02 11.4827 170.341 11.4827C170.426 11.4827 170.656 11.1907 170.853 10.8339H170.854Z" fill="#FF0000" stroke="#2d3748" stroke-width="1.5"/>
</g>
</svg>
